<?xml version="1.0" standalone="no"?>
<!DOCTYPE svg PUBLIC "-//W3C//DTD SVG 20010904//EN"
 "http://www.w3.org/TR/2001/REC-SVG-20010904/DTD/svg10.dtd">
<svg version="1.0" xmlns="http://www.w3.org/2000/svg"
 width="108.000000pt" height="94.000000pt" viewBox="0 0 108.000000 94.000000"
 preserveAspectRatio="xMidYMid meet">

<g transform="translate(0.000000,94.000000) scale(0.100000,-0.100000)"
fill="#000000" stroke="none">
<path d="M433 866 c-104 -34 -185 -106 -232 -205 -23 -49 -26 -69 -26 -158 0
-72 -4 -104 -12 -107 -7 -3 -15 -1 -18 4 -4 6 -25 9 -48 9 l-42 -1 39 -8 c22
-4 45 -16 53 -26 13 -17 13 -17 26 1 13 16 16 14 36 -29 l23 -46 -76 -84 c-42
-46 -76 -86 -76 -88 0 -2 17 -5 37 -5 22 -1 42 -8 49 -18 7 -9 18 -14 24 -10
10 6 130 -9 170 -22 8 -2 46 -6 84 -8 43 -2 72 -9 77 -17 8 -11 10 -11 18 0 5
8 36 15 82 18 41 2 109 11 153 20 43 8 85 13 94 9 8 -3 20 2 26 11 7 9 28 16
49 17 20 0 37 3 37 5 0 2 -33 40 -74 84 l-73 80 29 59 c19 39 32 82 35 122 3
34 11 65 17 70 8 5 7 9 -1 15 -19 12 -44 102 -29 102 18 0 36 -21 36 -42 0
-28 14 -21 27 12 9 24 17 30 42 30 17 0 31 5 31 10 0 15 -42 12 -66 -4 -17
-12 -22 -12 -39 0 -10 8 -27 14 -36 14 -10 0 -27 15 -38 34 -32 51 -96 105
-160 134 -67 31 -183 39 -248 18z m246 -438 c37 -40 83 -90 101 -111 36 -41
37 -41 -52 -3 -52 22 -58 20 -58 -16 l0 -32 -36 35 -36 34 -29 -35 c-16 -19
-29 -38 -29 -42 0 -19 -19 -5 -44 32 -14 22 -33 40 -40 40 -8 0 -26 -15 -40
-32 l-26 -33 0 33 c0 17 -5 32 -10 32 -6 0 -37 -11 -70 -24 -72 -30 -72 -29
50 102 l85 92 83 0 84 0 67 -72z"/>
</g>
</svg>
